<svg width="106" height="40" viewBox="0 0 106 40" fill="none" xmlns="http://www.w3.org/2000/svg">
<rect x="0.5" y="0.5" width="39" height="39" rx="19.5" stroke="#3A3C3E"/>
<path d="M18.1286 17.0003V23.7432C18.1364 24.2363 18.3377 24.7066 18.6892 25.0525C19.0406 25.3984 19.514 25.5923 20.0071 25.5923C20.5002 25.5923 20.9736 25.3984 21.325 25.0525C21.6765 24.7066 21.8778 24.2363 21.8856 23.7432L21.8917 14.905C21.8968 14.4835 21.8182 14.0653 21.6605 13.6744C21.5028 13.2836 21.269 12.9279 20.9728 12.6281C20.6766 12.3283 20.3238 12.0902 19.9349 11.9278C19.546 11.7653 19.1287 11.6816 18.7073 11.6816C18.2858 11.6816 17.8685 11.7653 17.4796 11.9278C17.0907 12.0902 16.7379 12.3283 16.4417 12.6281C16.1455 12.9279 15.9118 13.2836 15.754 13.6744C15.5963 14.0653 15.5177 14.4835 15.5228 14.905V23.8028C15.5142 24.3961 15.6237 24.9852 15.8448 25.5359C16.0659 26.0865 16.3943 26.5877 16.8108 27.0103C17.2273 27.4329 17.7237 27.7685 18.2711 27.9976C18.8185 28.2266 19.406 28.3446 19.9994 28.3446C20.5928 28.3446 21.1802 28.2266 21.7276 27.9976C22.275 27.7685 22.7714 27.4329 23.1879 27.0103C23.6045 26.5877 23.9328 26.0865 24.154 25.5359C24.3751 24.9852 24.4845 24.3961 24.4759 23.8028V15.4881" stroke="#D2D2D2" stroke-width="1.5" stroke-miterlimit="10" stroke-linecap="round"/>
<rect x="48.5" y="0.5" width="57" height="39" rx="19.5" stroke="#3A3C3E"/>
<g clip-path="url(#clip0_2119_4131)">
<path d="M64.2497 30.6125V25.4375L60.3872 28.2875C61.4747 29.3 62.7872 30.0875 64.2497 30.6125ZM71.7497 30.6125C73.2122 30.0875 74.5247 29.3 75.6122 28.2875L71.7497 25.4V30.6125ZM57.3872 23.75C57.4997 24.125 57.6497 24.4625 57.8372 24.8375L59.2997 23.75H57.3872ZM76.6997 23.75L78.1622 24.8375C78.3122 24.5 78.4622 24.125 78.6122 23.75H76.6997Z" fill="#2A5F9E"/>
<path d="M64.8124 22.25H56.9749C57.0874 22.775 57.2374 23.2625 57.3874 23.75H59.2999L57.8374 24.8375C58.1374 25.475 58.4749 26.0375 58.8874 26.6L62.7499 23.75H64.2499V24.5L59.8624 27.725L60.3874 28.25L64.2499 25.4375V30.6125C64.7374 30.8 65.2249 30.9125 65.7499 31.025V22.25H64.8124ZM79.0249 22.25H70.2499V31.025C70.7749 30.9125 71.2624 30.7625 71.7499 30.6125V25.4375L75.6124 28.25C76.1374 27.7625 76.5874 27.2375 77.0374 26.675L73.0249 23.75H75.5749L77.8624 25.4375C77.9749 25.25 78.0874 25.025 78.1624 24.8375L76.6999 23.75H78.6124C78.7624 23.2625 78.9124 22.775 79.0249 22.25Z" fill="white"/>
<path d="M58.8872 26.6C59.1872 27.0125 59.4872 27.3875 59.8247 27.7625L64.2497 24.5375V23.7875H62.7497L58.8872 26.6ZM73.0622 23.75L77.0747 26.675C77.2247 26.4875 77.3372 26.3 77.4872 26.1125C77.5247 26.075 77.5247 26.0375 77.5622 26.0375C77.6747 25.85 77.8247 25.625 77.9372 25.4375L75.5747 23.75H73.0622Z" fill="#ED4C5C"/>
<path d="M71.7497 9.38672V14.5617L75.6122 11.7117C74.5247 10.6992 73.2122 9.91172 71.7497 9.38672ZM64.2497 9.38672C62.7872 9.91172 61.4747 10.6992 60.3872 11.7117L64.2497 14.5992V9.38672ZM78.6122 16.2492C78.4997 15.8742 78.3497 15.5367 78.1622 15.1617L76.6997 16.2492H78.6122ZM59.2997 16.2492L57.8372 15.1617C57.6872 15.5367 57.5372 15.8742 57.3872 16.2492H59.2997Z" fill="#2A5F9E"/>
<path d="M71.1874 17.7506H78.9874C78.8749 17.2256 78.7249 16.7381 78.5749 16.2506H76.6624L78.1249 15.1631C77.8249 14.5256 77.4874 13.9631 77.0749 13.4006L73.2499 16.2506H71.7499V15.5006L76.1374 12.2756L75.6124 11.7506L71.7499 14.5631V9.38809C71.2624 9.20059 70.7749 9.08809 70.2499 8.97559V17.7506H71.1874ZM56.9749 17.7506H65.7499V8.97559C65.2249 9.08809 64.7374 9.23809 64.2499 9.38809V14.5631L60.3874 11.7506C59.8624 12.2381 59.4124 12.7631 58.9624 13.3256L62.9749 16.2506H60.4249L58.1374 14.5631C58.0249 14.7506 57.9124 14.9756 57.8374 15.1631L59.2999 16.2506H57.3874C57.2374 16.7381 57.0874 17.2256 56.9749 17.7506Z" fill="white"/>
<path d="M77.1124 13.4008C76.8124 12.9883 76.5124 12.6133 76.1749 12.2383L71.7499 15.4633V16.2133H73.2499L77.1124 13.4008ZM62.9374 16.2508L58.9624 13.3258C58.8124 13.5133 58.6999 13.7008 58.5499 13.8883C58.5124 13.9258 58.5124 13.9633 58.4749 13.9633C58.3624 14.1508 58.2124 14.3758 58.0999 14.5633L60.3874 16.2508H62.9374Z" fill="#ED4C5C"/>
<path d="M79.025 17.75H70.25V8.975C69.5375 8.825 68.7875 8.75 68 8.75C66.8188 8.75 66.4625 8.825 65.75 8.975V17.75H56.975C56.825 18.4625 56.75 19.2125 56.75 20C56.75 21.1812 56.825 21.5375 56.975 22.25H65.75V31.025C66.4625 31.175 67.2125 31.25 68 31.25C69.1812 31.25 69.5375 31.175 70.25 31.025V22.25H79.025C79.175 21.5375 79.25 20.7875 79.25 20C79.25 18.8188 79.175 18.4625 79.025 17.75Z" fill="#ED4C5C"/>
</g>
<path opacity="0.8" d="M86 18L90 22L94 18" stroke="white" stroke-width="1.33333" stroke-linecap="round" stroke-linejoin="round"/>
<defs>
<clipPath id="clip0_2119_4131">
<rect width="24" height="24" fill="white" transform="translate(56 8)"/>
</clipPath>
</defs>
</svg>
