<svg width="24" height="24" viewBox="0 0 24 24" fill="none" xmlns="http://www.w3.org/2000/svg">
<path fill-rule="evenodd" clip-rule="evenodd" d="M2.40002 5.6998C2.40002 5.46111 2.49485 5.23219 2.66363 5.06341C2.83241 4.89463 3.06133 4.7998 3.30002 4.7998H20.7C20.9387 4.7998 21.1676 4.89463 21.3364 5.06341C21.5052 5.23219 21.6 5.46111 21.6 5.6998C21.6 5.9385 21.5052 6.16742 21.3364 6.3362C21.1676 6.50498 20.9387 6.5998 20.7 6.5998H3.30002C3.06133 6.5998 2.83241 6.50498 2.66363 6.3362C2.49485 6.16742 2.40002 5.9385 2.40002 5.6998ZM2.40002 11.9998C2.40002 11.7611 2.49485 11.5322 2.66363 11.3634C2.83241 11.1946 3.06133 11.0998 3.30002 11.0998H20.7C20.9387 11.0998 21.1676 11.1946 21.3364 11.3634C21.5052 11.5322 21.6 11.7611 21.6 11.9998C21.6 12.2385 21.5052 12.4674 21.3364 12.6362C21.1676 12.805 20.9387 12.8998 20.7 12.8998H3.30002C3.06133 12.8998 2.83241 12.805 2.66363 12.6362C2.49485 12.4674 2.40002 12.2385 2.40002 11.9998ZM2.40002 18.2998C2.40002 18.0611 2.49485 17.8322 2.66363 17.6634C2.83241 17.4946 3.06133 17.3998 3.30002 17.3998H20.7C20.9387 17.3998 21.1676 17.4946 21.3364 17.6634C21.5052 17.8322 21.6 18.0611 21.6 18.2998C21.6 18.5385 21.5052 18.7674 21.3364 18.9362C21.1676 19.105 20.9387 19.1998 20.7 19.1998H3.30002C3.06133 19.1998 2.83241 19.105 2.66363 18.9362C2.49485 18.7674 2.40002 18.5385 2.40002 18.2998Z" fill="white"/>
</svg>
