<svg width="233" height="56" viewBox="0 0 233 56" fill="none" xmlns="http://www.w3.org/2000/svg">
<path fill-rule="evenodd" clip-rule="evenodd" d="M14.2567 1.38943L0 43.6764H9.30313L12.082 34.4337H25.2513L28.0302 43.6764H37.2729L36.4692 41.2925C34.1475 39.4426 34.0218 36.7563 33.8106 33.4067L23.0162 1.38943H14.2567ZM18.6667 12.5653L22.9558 26.822H14.3776L18.6667 12.5653Z" fill="white"/>
<path fill-rule="evenodd" clip-rule="evenodd" d="M46.2471 44.1597C42.1051 44.1597 38.7953 43.1459 36.4692 41.2925L33.8106 33.4067H40.0853C40.4477 36.0647 42.6225 37.7562 46.2471 37.7562C49.2676 37.7562 51.2007 36.6084 51.2007 34.7961C51.2007 32.3967 48.2932 31.9422 44.835 31.4017C39.7607 30.6085 33.5006 29.63 33.5006 22.0496C33.5006 16.5523 38.5146 12.7465 45.4014 12.7465C53.4359 12.7465 58.3291 16.5523 58.5103 22.6537H50.9591C50.7174 20.2977 48.4823 18.7271 45.5222 18.7271C42.8641 18.7271 40.931 19.8145 40.931 21.6872C40.931 24.1468 43.9154 24.5234 47.454 24.9699C51.6742 25.5024 56.6826 26.1344 58.3565 30.5181V37.5313C56.8331 41.7949 52.3929 44.1597 46.2471 44.1597Z" fill="white"/>
<path fill-rule="evenodd" clip-rule="evenodd" d="M58.3565 37.5313V43.6764H66.8743V34.1316L70.2572 30.8091L78.8958 43.6764H88.9843L75.9358 25.2513L88.0781 13.2298H77.446L66.8743 23.5599V0H58.3565V30.5181C58.7261 31.4862 58.9332 32.6373 58.9332 34.0108C58.9332 35.2967 58.7348 36.4726 58.3565 37.5313Z" fill="white"/>
<path fill-rule="evenodd" clip-rule="evenodd" d="M102.792 1.38943V43.6764L110.551 23.5599L121.821 29.178L133.301 23.5599L140.79 43.6764V20.2373V13.2298V1.38943L121.821 29.178L102.792 1.38943Z" fill="white"/>
<path fill-rule="evenodd" clip-rule="evenodd" d="M145.172 20.2373C146.501 20.2373 147.286 21.0227 147.286 22.3517V43.6764H155.683V21.2643C155.683 16.3107 152.603 13.2298 147.649 13.2298H140.79V20.2373H145.172ZM156.046 0L147.105 8.88026H156.046V0Z" fill="white"/>
<path fill-rule="evenodd" clip-rule="evenodd" d="M161.621 49.4153V56H177.267C184.395 56 188.503 52.1942 188.503 45.6699V20.2373H186.578L188.503 13.2298H180.046V16.2503C178.113 14.0755 174.85 12.7465 171.286 12.7465C162.708 12.7465 157.392 19.0895 157.392 28.4531C157.392 37.877 162.768 44.1597 171.165 44.1597C175.032 44.1597 178.415 42.7702 180.046 40.5955V44.8242C180.046 47.7238 178.475 49.4153 175.877 49.4153H161.621ZM180.529 28.4531C180.529 33.5275 177.569 36.9105 173.098 36.9105C168.628 36.9105 165.668 33.5275 165.668 28.4531C165.668 23.3182 168.628 19.9353 173.098 19.9353C177.569 19.9353 180.529 23.3182 180.529 28.4531Z" fill="white"/>
<path fill-rule="evenodd" clip-rule="evenodd" d="M193.948 20.2373C195.277 20.2373 196.063 21.0227 196.063 22.3517V43.6764H204.46V21.2643C204.46 16.3107 201.379 13.2298 196.425 13.2298H188.503V20.2373H193.948ZM204.822 0L195.882 8.88026H204.822V0Z" fill="white"/>
<path d="M220.801 1.76709C218.464 1.76709 216.181 2.45988 214.238 3.75786C212.296 5.05583 210.782 6.90069 209.887 9.05914C208.993 11.2176 208.759 13.5927 209.215 15.8841C209.671 18.1755 210.796 20.2803 212.448 21.9323C214.1 23.5843 216.205 24.7093 218.496 25.1651C220.788 25.6209 223.163 25.387 225.321 24.4929C227.48 23.5989 229.325 22.0848 230.623 20.1423C231.921 18.1997 232.613 15.9159 232.613 13.5796C232.61 10.4478 231.364 7.44525 229.15 5.23073C226.935 3.01621 223.933 1.77056 220.801 1.76709ZM220.801 22.7671C218.984 22.7671 217.207 22.2283 215.696 21.2187C214.186 20.2092 213.008 18.7743 212.313 17.0955C211.617 15.4167 211.435 13.5694 211.79 11.7872C212.144 10.005 213.019 8.36794 214.304 7.08305C215.589 5.79815 217.226 4.92313 219.008 4.56862C220.791 4.21412 222.638 4.39607 224.317 5.09145C225.995 5.78683 227.43 6.96441 228.44 8.47529C229.449 9.98617 229.988 11.7625 229.988 13.5796C229.986 16.0155 229.017 18.3508 227.294 20.0733C225.572 21.7957 223.237 22.7645 220.801 22.7671ZM223.94 15.0474C224.623 14.5657 225.135 13.8791 225.402 13.0871C225.669 12.2951 225.677 11.4386 225.425 10.6417C225.172 9.84486 224.673 9.1489 223.999 8.65457C223.325 8.16024 222.512 7.89319 221.676 7.89209H218.176C217.828 7.89209 217.494 8.03037 217.248 8.27651C217.002 8.52265 216.863 8.85649 216.863 9.20459V17.9546C216.863 18.3027 217.002 18.6365 217.248 18.8827C217.494 19.1288 217.828 19.2671 218.176 19.2671C218.524 19.2671 218.858 19.1288 219.104 18.8827C219.35 18.6365 219.488 18.3027 219.488 17.9546V15.7671H221.265L223.207 18.683C223.4 18.9731 223.701 19.1746 224.042 19.2431C224.384 19.3116 224.739 19.2415 225.029 19.0483C225.319 18.8551 225.521 18.5546 225.589 18.2129C225.658 17.8712 225.588 17.5162 225.395 17.2262L223.94 15.0474ZM219.488 10.5171H221.676C222.024 10.5171 222.358 10.6554 222.604 10.9015C222.85 11.1477 222.988 11.4815 222.988 11.8296C222.988 12.1777 222.85 12.5115 222.604 12.7577C222.358 13.0038 222.024 13.1421 221.676 13.1421H219.488V10.5171Z" fill="white"/>
</svg>
